<svg id="svg" version="1.1" xmlns="http://www.w3.org/2000/svg" xmlns:xlink="http://www.w3.org/1999/xlink" width="400" height="400" viewBox="0, 0, 400,400"><g id="svgg"><path id="path0" d="M0.000 200.000 L 0.000 400.000 200.000 400.000 L 400.000 400.000 400.000 200.000 L 400.000 0.000 200.000 0.000 L 0.000 0.000 0.000 200.000 M182.940 165.581 C 189.572 170.386,184.874 181.004,176.748 179.573 C 167.616 177.965,169.032 164.444,178.333 164.444 C 181.135 164.444,181.492 164.532,182.940 165.581 M225.481 164.965 C 229.856 167.241,230.740 173.988,227.124 177.501 C 220.789 183.656,211.102 176.398,214.795 168.264 C 216.321 164.901,221.994 163.150,225.481 164.965 M184.974 185.207 C 187.416 186.121,189.660 188.467,190.528 191.012 C 191.450 193.720,191.362 203.312,190.403 204.496 L 189.695 205.370 178.333 205.370 L 166.972 205.370 166.233 204.458 C 164.890 202.800,165.354 192.348,166.891 189.639 C 169.603 184.857,178.325 182.720,184.974 185.207 M228.211 185.175 C 230.726 186.131,232.783 188.179,233.706 190.647 C 234.782 193.523,234.803 203.178,233.737 204.496 L 233.029 205.370 222.479 205.484 C 207.887 205.641,208.738 206.165,208.947 197.152 C 209.119 189.724,211.108 186.283,216.059 184.848 C 218.401 184.170,226.110 184.377,228.211 185.175 M180.343 210.976 C 181.021 211.837,181.111 212.462,181.111 216.284 L 181.111 220.617 182.498 221.514 C 183.261 222.008,184.289 223.036,184.782 223.798 L 185.680 225.185 200.049 225.185 L 214.418 225.185 214.847 224.352 C 215.481 223.120,217.109 221.451,218.025 221.095 C 218.780 220.801,218.835 220.503,218.951 216.098 C 219.087 210.906,219.521 210.000,221.866 210.000 C 223.901 210.000,224.444 211.340,224.444 216.355 C 224.444 220.579,224.478 220.772,225.278 221.083 C 226.220 221.449,227.845 223.104,228.486 224.352 C 228.906 225.167,229.052 225.185,235.314 225.185 C 242.552 225.185,243.333 225.449,243.333 227.895 C 243.333 230.601,242.963 230.738,235.627 230.761 L 229.074 230.781 227.950 232.490 C 224.992 236.991,218.022 236.962,215.276 232.439 L 214.259 230.764 200.000 230.773 L 185.741 230.781 184.617 232.490 C 181.685 236.951,174.926 236.954,172.037 232.496 L 170.926 230.781 164.537 230.761 C 157.361 230.738,156.667 230.502,156.667 228.079 C 156.667 225.473,157.466 225.185,164.706 225.185 C 170.495 225.185,171.157 225.121,171.361 224.537 C 171.691 223.595,173.757 221.461,174.692 221.096 C 175.445 220.802,175.502 220.501,175.617 216.170 C 175.722 212.262,175.849 211.438,176.446 210.778 C 177.477 209.641,179.369 209.737,180.343 210.976 M176.459 226.834 C 175.694 228.001,175.871 228.817,177.085 229.722 C 179.275 231.356,182.077 228.361,180.063 226.539 C 179.023 225.597,177.170 225.749,176.459 226.834 M219.793 226.834 C 219.028 228.001,219.204 228.817,220.418 229.722 C 222.609 231.356,225.410 228.361,223.397 226.539 C 222.356 225.597,220.504 225.749,219.793 226.834 " stroke="none" fill="#fbfbfc" fill-rule="evenodd"></path><path id="path1" d="M176.072 164.737 C 172.144 166.060,169.734 170.954,171.240 174.549 C 174.507 182.345,185.908 180.092,185.924 171.647 C 185.932 167.224,180.338 163.301,176.072 164.737 M219.405 164.737 C 210.416 167.764,213.977 180.879,223.327 179.181 C 229.733 178.017,231.289 168.985,225.680 165.518 C 224.360 164.702,220.817 164.262,219.405 164.737 M172.374 185.491 C 167.185 187.284,165.325 191.194,165.609 199.710 C 165.800 205.449,164.721 205.000,178.333 205.000 C 192.240 205.000,190.926 205.726,190.926 198.041 C 190.926 190.104,189.211 186.829,184.285 185.360 C 181.648 184.573,174.811 184.648,172.374 185.491 M215.707 185.491 C 210.760 187.201,208.914 190.743,208.897 198.556 C 208.882 205.432,208.568 205.283,222.673 205.119 C 235.410 204.971,234.259 205.674,234.259 198.041 C 234.259 190.104,232.544 186.829,227.618 185.360 C 224.981 184.573,218.144 184.648,215.707 185.491 M176.667 211.111 C 176.005 211.772,175.926 212.346,175.926 216.457 C 175.926 220.740,175.874 221.078,175.183 221.297 C 174.077 221.648,172.270 223.277,171.644 224.489 L 171.092 225.556 164.788 225.556 C 157.648 225.556,156.262 226.059,156.837 228.445 C 157.270 230.242,157.793 230.370,164.712 230.370 C 170.493 230.370,171.158 230.435,171.368 231.019 C 173.289 236.342,181.734 237.012,184.630 232.070 L 185.626 230.370 200.000 230.370 L 214.374 230.370 215.373 232.075 C 218.025 236.600,225.100 236.644,227.892 232.152 L 229.000 230.370 235.426 230.370 C 242.372 230.370,243.333 230.098,243.333 228.131 C 243.333 225.967,242.044 225.556,235.264 225.556 L 229.013 225.556 228.118 224.178 C 227.625 223.421,226.514 222.326,225.648 221.746 L 224.074 220.692 224.074 216.272 C 224.074 211.447,223.648 210.370,221.737 210.370 C 219.706 210.370,219.259 211.463,219.259 216.427 L 219.259 220.974 217.958 221.595 C 217.242 221.936,216.127 222.967,215.479 223.885 L 214.302 225.556 199.991 225.556 L 185.680 225.556 184.784 224.178 C 184.292 223.421,183.181 222.326,182.315 221.746 L 180.741 220.692 180.741 216.272 C 180.741 211.407,180.318 210.370,178.333 210.370 C 177.824 210.370,177.074 210.704,176.667 211.111 M180.071 226.204 C 181.293 227.626,181.142 229.130,179.662 230.266 C 177.394 232.007,174.590 228.386,176.539 226.233 C 177.323 225.366,179.338 225.349,180.071 226.204 M223.405 226.204 C 224.627 227.626,224.475 229.130,222.995 230.266 C 220.727 232.007,217.924 228.386,219.872 226.233 C 220.657 225.366,222.671 225.349,223.405 226.204 " stroke="none" fill="#5e4fe4" fill-rule="evenodd"></path><path id="path2" d="M176.759 184.717 C 177.727 184.793,179.310 184.793,180.278 184.717 C 181.245 184.640,180.454 184.578,178.519 184.578 C 176.583 184.578,175.792 184.640,176.759 184.717 M220.093 184.717 C 221.060 184.793,222.644 184.793,223.611 184.717 C 224.579 184.640,223.787 184.578,221.852 184.578 C 219.917 184.578,219.125 184.640,220.093 184.717 M180.881 216.667 C 180.881 219.009,180.941 219.968,181.014 218.796 C 181.088 217.625,181.088 215.708,181.014 214.537 C 180.941 213.366,180.881 214.324,180.881 216.667 M224.214 216.667 C 224.214 219.009,224.274 219.968,224.348 218.796 C 224.421 217.625,224.421 215.708,224.348 214.537 C 224.274 213.366,224.214 214.324,224.214 216.667 M160.556 230.623 C 165.980 230.890,171.398 230.903,171.240 230.648 C 171.145 230.495,168.202 230.402,164.700 230.442 C 161.198 230.481,159.333 230.562,160.556 230.623 M185.428 230.648 C 185.333 230.801,191.891 230.926,200.000 230.926 C 208.109 230.926,214.667 230.801,214.572 230.648 C 214.478 230.495,207.920 230.370,200.000 230.370 C 192.080 230.370,185.522 230.495,185.428 230.648 M228.760 230.648 C 228.665 230.801,230.530 230.882,232.905 230.829 C 240.871 230.650,241.715 230.514,235.300 230.442 C 231.798 230.402,228.855 230.495,228.760 230.648 " stroke="none" fill="#c1bbf4" fill-rule="evenodd"></path><path id="path3" d="M175.554 216.742 C 175.453 219.126,175.501 220.945,175.661 220.785 C 175.821 220.624,175.904 218.673,175.845 216.450 L 175.737 212.407 175.554 216.742 M218.887 216.742 C 218.786 219.126,218.835 220.945,218.995 220.785 C 219.155 220.624,219.237 218.673,219.178 216.450 L 219.070 212.407 218.887 216.742 M161.759 225.461 C 163.440 225.529,166.190 225.529,167.870 225.461 C 169.551 225.392,168.176 225.336,164.815 225.336 C 161.454 225.336,160.079 225.392,161.759 225.461 M192.475 225.462 C 196.383 225.522,202.883 225.522,206.920 225.463 C 210.957 225.403,207.759 225.354,199.815 225.354 C 191.870 225.353,188.568 225.402,192.475 225.462 M231.963 225.461 C 233.755 225.529,236.588 225.529,238.259 225.460 C 239.929 225.392,238.463 225.336,235.000 225.337 C 231.537 225.337,230.170 225.393,231.963 225.461 " stroke="none" fill="#ccccf4" fill-rule="evenodd"></path><path id="path4" d="M173.263 205.462 C 176.178 205.525,180.845 205.525,183.634 205.462 C 186.422 205.399,184.037 205.348,178.333 205.348 C 172.630 205.348,170.348 205.400,173.263 205.462 M216.596 205.462 C 219.512 205.525,224.178 205.525,226.967 205.462 C 229.755 205.399,227.370 205.348,221.667 205.348 C 215.963 205.348,213.681 205.400,216.596 205.462 " stroke="none" fill="#d9d7fb" fill-rule="evenodd"></path></g></svg>